- 
http://www.Speed.Cd
 
http://www.Speed.Cd       the fast  and The Hottest Private Tracker on the net

Please Seed back to make the speed Faster!!
 ............ NFO .............
-General
Unique ID                                : 225400429816185365315535391414178742179 (0xA9928B31A1CBEF00A20E41EF0D16FFA3)
Complete name                            : Sons.of.Anarchy.S05E06.Small.World.720p.WEB-DL.DD5.1.H.264-CtrlHD.mkv
Format                                   : Matroska
Format version                           : Version 2
File size                                : 1.41 GiB
Duration                                 : 47mn 4s
Overall bit rate                         : 4 297 Kbps
Encoded date                             : UTC 2012-10-17 10:23:24
Writing application                      : mkvmerge v5.8.0 ('No Sleep / Pillow') built on Sep  2 2012 15:37:04
Writing library                          : libebml v1.2.3 + libmatroska v1.3.0

Video
ID                                       : 1
Format                                   : AVC
Format/Info                              : Advanced Video Codec
Format profile                           : High@L3.1
Format settings, CABAC                   : No
Format settings, ReFrames                : 2 frames
Format settings, GOP                     : N=1
Codec ID                                 : V_MPEG4/ISO/AVC
Duration                                 : 47mn 4s
Bit rate                                 : 3 827 Kbps
Width                                    : 1 280 pixels
Height                                   : 718 pixels
Display aspect ratio                     : 16:9
Frame rate mode                          : Constant
Frame rate                               : 23.976 fps
Color space                              : YUV
Chroma subsampling                       : 4:2:0
Bit depth                                : 8 bits
Scan type                                : Progressive
Bits/(Pixel*Frame)                       : 0.174
Stream size                              : 1.26 GiB (89%)
Language                                 : English
Default                                  : Yes
Forced                                   : No
Color primaries                          : BT.709
Transfer characteristics                 : BT.709
Matrix coefficients                      : BT.709

Audio
ID                                       : 2
Format                                   : AC-3
Format/Info                              : Audio Coding 3
Mode extension                           : CM (complete main)
Format settings, Endianness              : Big
Codec ID                                 : A_AC3
Duration                                 : 47mn 4s
Bit rate mode                            : Constant
Bit rate                                 : 384 Kbps
Channel(s)                               : 6 channels
Channel positions                        : Front: L C R, Side: L R, LFE
Sampling rate                            : 48.0 KHz
Bit depth                                : 16 bits
Compression mode                         : Lossy
Stream size                              : 129 MiB (9%)
Language                                 : English
Default                                  : Yes
Forced                                   : No